<svg width="100" height="100" viewBox="0 0 100 100" fill="none" xmlns="http://www.w3.org/2000/svg">
<style>
  @media (prefers-color-scheme: dark) {
    .background { fill: white }
    .text { fill: #0F172A }
  }

  @media (prefers-color-scheme: light) {
    .background { fill: #0F172A }
    .text { fill: white }
  }
</style>
<path class="background" d="M0 36.56C0 6.45284 6.45284 0 36.56 0H63.44C93.5472 0 100 6.45284 100 36.56V63.44C100 93.5472 93.5472 100 63.44 100H36.56C6.45284 100 0 93.5472 0 63.44V36.56Z" />
<path class="text" d="M22.232 57.504C22.232 54.336 22.712 51.6 23.672 49.296C24.632 46.944 25.952 45 27.632 43.464C29.36 41.928 31.352 40.8 33.608 40.08C35.912 39.312 38.384 38.928 41.024 38.928C41.984 38.928 42.92 39.024 43.832 39.216C44.744 39.36 45.488 39.552 46.064 39.792V28.128C46.544 27.984 47.312 27.84 48.368 27.696C49.424 27.504 50.504 27.408 51.608 27.408C52.664 27.408 53.6 27.48 54.416 27.624C55.28 27.768 56 28.056 56.576 28.488C57.152 28.92 57.584 29.52 57.872 30.288C58.16 31.008 58.304 31.968 58.304 33.168V67.296C58.304 69.552 57.248 71.352 55.136 72.696C53.744 73.608 51.944 74.4 49.736 75.072C47.528 75.792 44.984 76.152 42.104 76.152C38.984 76.152 36.176 75.72 33.68 74.856C31.232 73.992 29.144 72.744 27.416 71.112C25.736 69.48 24.44 67.536 23.528 65.28C22.664 62.976 22.232 60.384 22.232 57.504ZM42.68 48.504C40.088 48.504 38.096 49.248 36.704 50.736C35.312 52.224 34.616 54.48 34.616 57.504C34.616 60.48 35.264 62.736 36.56 64.272C37.856 65.76 39.728 66.504 42.176 66.504C43.04 66.504 43.808 66.384 44.48 66.144C45.2 65.856 45.752 65.544 46.136 65.208V49.368C45.176 48.792 44.024 48.504 42.68 48.504ZM63.7715 69.168C63.7715 67.152 64.3955 65.472 65.6435 64.128C66.8915 62.784 68.5955 62.112 70.7555 62.112C72.9155 62.112 74.6195 62.784 75.8675 64.128C77.1155 65.472 77.7395 67.152 77.7395 69.168C77.7395 71.184 77.1155 72.864 75.8675 74.208C74.6195 75.552 72.9155 76.224 70.7555 76.224C68.5955 76.224 66.8915 75.552 65.6435 74.208C64.3955 72.864 63.7715 71.184 63.7715 69.168Z" />
</svg>
